<?xml version="1.0" encoding="utf-8"?>
<!-- Generator: Adobe Illustrator 24.0.1, SVG Export Plug-In . SVG Version: 6.00 Build 0)  -->
<svg version="1.1" id="Capa_1" xmlns="http://www.w3.org/2000/svg" xmlns:xlink="http://www.w3.org/1999/xlink" x="0px" y="0px"
	 viewBox="0 0 400 500" style="enable-background:new 0 0 400 500;" xml:space="preserve">
<style type="text/css">
	.st0{fill:#F9FBF2;}
	.st1{fill:#0D0D0D;}
	.st2{fill:#731224;}
</style>
<g>
	<g>
		<path class="st0" d="M152,154l-72-39.3c-9.8-5.4-16-15.7-16-26.9V66l-8-16L42.4,68.1c-6.9,9.2-14.5,18-22.7,26.2l-0.4,0.4
			c-2.1,2.1-3.3,5-3.3,8c0,6.2,5.1,11.3,11.3,11.3l0,0c8.1,0,15.9,3.2,21.7,9l36.7,36.7c6.8,6.8,14.7,12.5,23.3,16.8
			c12.5,6.2,26.2,9.5,40.2,9.5h2.8l7.3-29.3L152,154z"/>
		<path class="st0" d="M72,82h24l36.3,12.1c7.7,2.6,15.8,3.9,24,3.9h1.8c11.8,0,23.4,2.7,33.9,8s22.1,8,33.9,8H240V93.3
			c0-7.2-2.8-14-7.9-19.1c-1.5-0.1-3-0.2-4.4-0.2h-33.8c-11.8,0-23.4-2.7-33.9-8s-22.1-8-33.9-8H96l-24-8H56l8,16L72,82z"/>
		<path class="st0" d="M256,398.6v14.7c0,8.4-1.4,16.7-4,24.6s-4,16.3-4,24.6V474c0,8.8,7.2,16,16,16c8.8,0,16-7.2,16-16v-11.4
			c0-8.4,1.4-16.7,4-24.6l8-24c2.6-8,4-16.3,4-24.6V354h-32.2c-0.4,6.8-1.7,13.5-3.8,20C257.4,381.9,256,390.3,256,398.6z"/>
		<path class="st0" d="M288,74L288,74c-13.3,0-24-10.7-24-24V34c0-13.3,10.7-24,24-24l0,0c13.3,0,24,10.7,24,24v16
			C312,63.3,301.3,74,288,74z"/>
		<path class="st0" d="M380.3,148.1l-30.7-49.2c-3.6-5.7-9.3-9.7-15.9-11l-24.8-5l11.2,39l32,40l-32,40l-8,40l24-16l42.1-49.2
			c3.8-4.4,5.9-10,5.9-15.9C384,156.4,382.7,151.9,380.3,148.1z"/>
	</g>
	<path class="st1" d="M240,186l-80.7-29.3L152,186l9.6,8c25.5,21.2,53.9,38.7,84.4,51.8c6.5,2.8,11.7,7.7,14.9,14
		c2.1,4.1,3.1,8.7,3.1,13.3v76.3c0,1.6-0.1,3.1-0.2,4.6H296v-14.4c0-6.4,0.8-12.7,2.3-18.9l9.9-39.4c1.9-7.7,3.1-15.5,3.6-23.4
		C280.7,242.3,255.5,217.1,240,186z"/>
	<path class="st0" d="M284,98c7.4,0,14.1-4.2,17.4-10.7L304,82l2.9-2.9L272,66l-8,16l2.6,5.3C269.9,93.8,276.6,98,284,98z"/>
	<path class="st2" d="M312,243.2c0-6.1,0.6-12.2,1.8-18.2l6.2-31v-65.4c0-14.5,5.8-28.4,16-38.6l-29.1-10.9L304,82l-2.6,5.3
		c-3.3,6.6-10,10.7-17.4,10.7s-14.1-4.2-17.4-10.7L264,82l-12.3-4.1c-6.3-2.1-12.9-3.3-19.5-3.7c5,5.1,7.9,12,7.9,19.1V114v72
		c15.5,31.1,40.7,56.3,71.8,71.9c0.2-2.5,0.2-5.1,0.2-7.6v-7.1H312z"/>
	<path d="M387.1,143.8l-30.7-49.2c-4.7-7.5-12.4-12.8-21.1-14.6L312,75.4v-4.5c4.9-5.6,8-12.9,8-20.9V34c0-17.6-14.4-32-32-32
		s-32,14.4-32,32v16c0,6.8,2.2,13.2,5.9,18.4l-1.9,3.8l-5.8-1.9c-8.6-2.8-17.5-4.3-26.5-4.3h-33.8c-10.5,0-20.9-2.5-30.3-7.2
		C152,53.1,139,50,126.1,50H97.3l-24-8H52L36,63.3C29.3,72.2,22,80.7,13.7,89C10,92.7,8,97.5,8,102.7c0,10.6,8.7,19.3,19.3,19.3
		c6,0,11.7,2.4,16,6.6L80,165.3c7.4,7.4,16,13.6,25.4,18.3c13.5,6.7,28.6,10.3,43.6,10.3l7.3,6.1c26.1,21.8,55.2,39.6,86.4,53
		c4.7,2,8.6,5.6,10.9,10.2c1.5,3,2.3,6.3,2.3,9.7v76.3c0,7.5-1.2,15-3.6,22.1c-2.9,8.8-4.4,17.9-4.4,27.2v14.7
		c0,7.5-1.2,15-3.6,22.1c-2.9,8.8-4.4,17.9-4.4,27.2V474c0,13.2,10.8,24,24,24c13.2,0,24-10.8,24-24v-11.4c0-7.5,1.2-15,3.6-22.1
		l8-24c2.9-8.8,4.4-17.9,4.4-27.2v-49.8c0-5.7,0.7-11.4,2.1-17l9.8-39.4c2.7-10.8,4.1-21.8,4.1-33v-4l20.4-13.6l43.8-50.6
		c5-5.9,7.8-13.3,7.8-21.1C392,154.9,390.3,149,387.1,143.8z M328,144.8l13.8,17.2l-13.9,17.3L328,144.8z M274.5,78.9
		c4.1,1.9,8.7,3.1,13.5,3.1c2.6,0,5.1-0.4,7.6-1l-1.3,2.7c-1.9,3.9-5.9,6.3-10.2,6.3s-8.3-2.4-10.2-6.3l-0.8-1.7L274.5,78.9z
		 M272,34c0-8.8,7.2-16,16-16s16,7.2,16,16v16c0,8.8-7.2,16-16,16s-16-7.2-16-16V34z M258.3,88.5l1.2,2.3
		c4.7,9.3,14.1,15.2,24.5,15.2s19.7-5.7,24.4-15l14.1,2.8C315.7,104,312,116,312,128.6v64.6l-6,30.2c-1.3,6.5-2,13.1-2,19.7v1.2
		c-23.7-14.6-43.2-35.6-56-60.4v-70v-8V93.3c0-2.9-0.4-5.7-1.1-8.4c0.7,0.2,1.5,0.3,2.2,0.6L258.3,88.5z M94.7,66h31.4
		c10.5,0,20.9,2.5,30.3,7.2C168,78.9,181,82,193.9,82h33.8c0.2,0,0.4,0,0.6,0c2.4,3.3,3.7,7.2,3.7,11.3V106h-6.1
		c-10.5,0-21-2.5-30.3-7.2C184,93.1,171,90,158.1,90h-1.8c-7.3,0-14.5-1.2-21.4-3.5L97.3,74H76.9l-8-16h1.8L94.7,66z M155.3,146.7
		l-71.5-39c-6.6-3.6-11-10.3-11.7-17.7h22.6l35.1,11.7c8.5,2.8,17.5,4.3,26.5,4.3h1.8c10.5,0,20.9,2.5,30.3,7.2
		c11.6,5.8,24.5,8.8,37.5,8.8h6.1v52.6L155.3,146.7z M91.4,154l-36.7-36.7c-7.3-7.3-17-11.3-27.3-11.3c-1.8,0-3.3-1.5-3.3-3.3
		c0-0.9,0.4-1.7,1.4-2.8c8.4-8.4,16.3-17.5,23.4-27l5.8-7.8l1.4,2.7v19.9c0,14.1,7.7,27.1,20.1,33.9l72,39.3l1.7,0.6l-4,16.2
		c-11.5-0.5-22.9-3.3-33.2-8.4C104.7,165.4,97.6,160.3,91.4,154z M284.4,411.5l-8,24c-2.9,8.8-4.4,17.9-4.4,27.2V474
		c0,4.4-3.6,8-8,8s-8-3.6-8-8v-11.4c0-7.5,1.2-15,3.6-22.1c2.9-8.8,4.4-17.9,4.4-27.2v-14.7c0-7.5,1.2-15,3.6-22.1
		c1.6-4.8,2.7-9.6,3.4-14.5h17v27.4C288,396.9,286.8,404.3,284.4,411.5z M290.6,318.8c-1.7,6.8-2.6,13.8-2.6,20.8v6.4h-16v-73
		c0-5.8-1.4-11.7-4-16.9c-4-8-10.7-14.3-18.9-17.8c-29.8-12.8-57.6-29.8-82.5-50.5l-5.7-4.7l4-15.9l69.5,25.3
		c15.5,29.4,39.6,53.9,68.8,69.8c-0.6,5.7-1.4,11.4-2.8,17L290.6,318.8z M372.1,171.6L330.6,220l-8.9,5.9l3.6-17.8l36.9-46.1
		l-33.5-41.8c1.4-7.8,4.8-15.2,10-21.3c1.6,1.2,3,2.6,4,4.3l30.7,49.2c1.6,2.6,2.5,5.6,2.5,8.7C376,164.9,374.6,168.7,372.1,171.6z"
		/>
</g>
</svg>
